<svg xmlns="http://www.w3.org/2000/svg" xmlns:xlink="http://www.w3.org/1999/xlink" width="700" zoomAndPan="magnify" viewBox="0 0 525 149.999998" height="200" preserveAspectRatio="xMidYMid meet" version="1.0"><defs><g/><clipPath id="47755ca2d6"><path d="M 3.007812 35.914062 L 84.75 35.914062 L 84.75 130.941406 L 3.007812 130.941406 Z M 3.007812 35.914062 " clip-rule="nonzero"/></clipPath></defs><g clip-path="url(#47755ca2d6)"><path fill="#3b82f6" d="M 84.824219 67.183594 C 87.046875 57.058594 73.621094 52.527344 73.621094 52.527344 C 73.621094 52.527344 72.171875 38.5 61.503906 37.855469 C 46.414062 36.949219 45.144531 63.800781 44.492188 72.582031 C 44.914062 64.089844 46.878906 38.910156 34.359375 36.160156 C 24.238281 33.9375 19.859375 47.558594 19.859375 47.558594 C 19.859375 47.558594 5.675781 48.8125 5.035156 59.480469 C 4.128906 74.570312 30.308594 75.992188 39.089844 76.644531 C 30.597656 76.226562 6.007812 74.96875 3.257812 87.488281 C 1.035156 97.613281 14.460938 102.1875 14.460938 102.1875 C 14.460938 102.1875 13.929688 114.492188 24.601562 115.132812 C 29.277344 115.414062 33.578125 113.214844 35.894531 109.28125 C 39.523438 103.109375 39.695312 97.464844 40.671875 92.242188 C 41.128906 89.8125 41.0625 89.34375 41.40625 87.585938 C 41.441406 87.226562 41.59375 86.953125 41.8125 86.757812 C 41.820312 105.171875 37.292969 116.832031 27.503906 127.585938 C 27.4375 127.660156 27.441406 127.773438 27.519531 127.835938 C 28.738281 128.839844 29.953125 129.855469 31.160156 130.875 C 31.28125 130.980469 31.464844 130.960938 31.566406 130.835938 C 40.761719 119.449219 44.496094 105.945312 44.375 86.878906 C 44.65625 87.121094 44.839844 87.441406 44.835938 87.832031 C 44.734375 94 45.4375 100.371094 46.820312 106.914062 C 47.898438 111.113281 49.953125 114.773438 54.382812 115.746094 C 64.503906 117.96875 68.652344 106.289062 68.652344 106.289062 C 68.652344 106.289062 82.917969 105.035156 83.558594 94.367188 C 84.464844 79.277344 57.65625 77.574219 48.878906 76.921875 C 57.367188 77.34375 82.074219 79.703125 84.824219 67.183594 " fill-opacity="1" fill-rule="nonzero"/></g><g fill="#3b82f6" fill-opacity="1"><g transform="translate(106.891226, 101.753081)"><g><path d="M 4.265625 0 L 4.265625 -48.890625 L 26.40625 -48.890625 C 32.8125 -48.890625 37.738281 -47.242188 41.1875 -43.953125 C 44.644531 -40.671875 46.375 -36.632812 46.375 -31.84375 C 46.375 -28.882812 45.566406 -26 43.953125 -23.1875 C 42.335938 -20.375 40.023438 -18.242188 37.015625 -16.796875 L 44.875 0 L 32.421875 0 L 25.5625 -14.625 L 15.546875 -14.625 L 15.546875 0 Z M 15.546875 -23.140625 L 26.578125 -23.140625 C 29.078125 -23.140625 31.117188 -23.921875 32.703125 -25.484375 C 34.296875 -27.046875 35.09375 -29.132812 35.09375 -31.75 C 35.09375 -34.375 34.296875 -36.460938 32.703125 -38.015625 C 31.117188 -39.578125 29.078125 -40.359375 26.578125 -40.359375 L 15.546875 -40.359375 Z M 15.546875 -23.140625 "/></g></g></g><g fill="#3b82f6" fill-opacity="1"><g transform="translate(155.104686, 101.753081)"><g><path d="M 14.703125 0.5 C 11.359375 0.5 8.445312 -0.414062 5.96875 -2.25 C 3.488281 -4.09375 2.25 -6.769531 2.25 -10.28125 C 2.25 -12.78125 3.054688 -14.878906 4.671875 -16.578125 C 6.296875 -18.285156 8.554688 -19.5 11.453125 -20.21875 C 14.347656 -20.945312 17.085938 -21.4375 19.671875 -21.6875 C 22.265625 -21.9375 25.257812 -22.0625 28.65625 -22.0625 C 28.65625 -24.34375 28.039062 -25.941406 26.8125 -26.859375 C 25.59375 -27.785156 23.867188 -28.25 21.640625 -28.25 C 17.078125 -28.25 14.710938 -27.050781 14.546875 -24.65625 L 4.34375 -24.65625 C 5.570312 -32.445312 11.171875 -36.34375 21.140625 -36.34375 C 27.992188 -36.34375 32.835938 -34.976562 35.671875 -32.25 C 38.515625 -29.519531 39.9375 -25.257812 39.9375 -19.46875 L 39.9375 0 L 29.40625 0 L 28.65625 -3.921875 C 26.320312 -0.972656 21.671875 0.5 14.703125 0.5 Z M 20.71875 -7.609375 C 21.664062 -7.609375 22.972656 -7.882812 24.640625 -8.4375 C 26.316406 -9 27.65625 -9.695312 28.65625 -10.53125 L 28.65625 -15.203125 C 24.976562 -15.203125 21.523438 -14.851562 18.296875 -14.15625 C 15.066406 -13.46875 13.453125 -12.316406 13.453125 -10.703125 C 13.453125 -8.640625 15.875 -7.609375 20.71875 -7.609375 Z M 20.71875 -7.609375 "/></g></g></g><g fill="#3b82f6" fill-opacity="1"><g transform="translate(198.053934, 101.753081)"><g><path d="M 8.515625 0 L 8.515625 -26.984375 L 1.75 -26.984375 L 1.75 -35.515625 L 8.515625 -35.515625 L 8.515625 -38.4375 C 8.515625 -47.457031 12.722656 -51.96875 21.140625 -51.96875 C 24.316406 -51.96875 26.9375 -51.75 29 -51.3125 L 29 -43.625 C 28.664062 -43.726562 28.21875 -43.78125 27.65625 -43.78125 L 26.234375 -43.78125 C 23.671875 -43.78125 21.957031 -43.375 21.09375 -42.5625 C 20.226562 -41.757812 19.796875 -40.160156 19.796875 -37.765625 L 19.796875 -35.515625 L 29 -35.515625 L 29 -26.984375 L 19.796875 -26.984375 L 19.796875 0 Z M 8.515625 0 "/></g></g></g><g fill="#3b82f6" fill-opacity="1"><g transform="translate(229.221382, 101.753081)"><g><path d="M 8.515625 0 L 8.515625 -26.984375 L 1.75 -26.984375 L 1.75 -35.515625 L 8.515625 -35.515625 L 8.515625 -38.4375 C 8.515625 -47.457031 12.722656 -51.96875 21.140625 -51.96875 C 24.316406 -51.96875 26.9375 -51.75 29 -51.3125 L 29 -43.625 C 28.664062 -43.726562 28.21875 -43.78125 27.65625 -43.78125 L 26.234375 -43.78125 C 23.671875 -43.78125 21.957031 -43.375 21.09375 -42.5625 C 20.226562 -41.757812 19.796875 -40.160156 19.796875 -37.765625 L 19.796875 -35.515625 L 29 -35.515625 L 29 -26.984375 L 19.796875 -26.984375 L 19.796875 0 Z M 8.515625 0 "/></g></g></g><g fill="#3b82f6" fill-opacity="1"><g transform="translate(260.388831, 101.753081)"><g><path d="M 15.546875 0.5 C 7.742188 0.5 3.84375 -4.765625 3.84375 -15.296875 L 3.84375 -48.890625 L 15.125 -48.890625 L 15.125 -12.703125 C 15.125 -9.578125 16.769531 -7.878906 20.0625 -7.609375 L 20.0625 0.171875 C 18.78125 0.390625 17.273438 0.5 15.546875 0.5 Z M 15.546875 0.5 "/></g></g></g><g fill="#3b82f6" fill-opacity="1"><g transform="translate(282.448373, 101.753081)"><g><path d="M 22.984375 0.5 C 16.179688 0.5 11.082031 -1.222656 7.6875 -4.671875 C 4.289062 -8.128906 2.59375 -12.53125 2.59375 -17.875 C 2.59375 -23.34375 4.25 -27.785156 7.5625 -31.203125 C 10.875 -34.628906 15.929688 -36.34375 22.734375 -36.34375 C 29.472656 -36.34375 34.441406 -34.628906 37.640625 -31.203125 C 40.847656 -27.785156 42.453125 -23.34375 42.453125 -17.875 L 42.453125 -13.78125 L 13.875 -13.78125 C 14.207031 -11.445312 15.109375 -9.832031 16.578125 -8.9375 C 18.054688 -8.050781 20.160156 -7.609375 22.890625 -7.609375 C 26.179688 -7.609375 28.328125 -8.664062 29.328125 -10.78125 L 40.6875 -10.78125 C 40.300781 -7.550781 38.4375 -4.863281 35.09375 -2.71875 C 31.75 -0.570312 27.710938 0.5 22.984375 0.5 Z M 13.953125 -21.71875 L 31.34375 -21.71875 C 30.5625 -24.28125 29.5 -26.007812 28.15625 -26.90625 C 26.820312 -27.800781 24.984375 -28.25 22.640625 -28.25 C 20.304688 -28.25 18.46875 -27.800781 17.125 -26.90625 C 15.789062 -26.007812 14.734375 -24.28125 13.953125 -21.71875 Z M 13.953125 -21.71875 "/></g></g></g><g fill="#3b82f6" fill-opacity="1"><g transform="translate(327.068803, 101.753081)"><g/></g></g><g fill="#3b82f6" fill-opacity="1"><g transform="translate(342.861423, 101.753081)"><g><path d="M 4.265625 0 L 4.265625 -48.890625 L 40.28125 -48.890625 L 40.28125 -40.359375 L 15.546875 -40.359375 L 15.546875 -28.40625 L 34.765625 -28.40625 L 34.765625 -19.890625 L 15.546875 -19.890625 L 15.546875 -8.515625 L 40.28125 -8.515625 L 40.28125 0 Z M 4.265625 0 "/></g></g></g><g fill="#3b82f6" fill-opacity="1"><g transform="translate(386.144907, 101.753081)"><g><path d="M 14.703125 0.5 C 11.359375 0.5 8.445312 -0.414062 5.96875 -2.25 C 3.488281 -4.09375 2.25 -6.769531 2.25 -10.28125 C 2.25 -12.78125 3.054688 -14.878906 4.671875 -16.578125 C 6.296875 -18.285156 8.554688 -19.5 11.453125 -20.21875 C 14.347656 -20.945312 17.085938 -21.4375 19.671875 -21.6875 C 22.265625 -21.9375 25.257812 -22.0625 28.65625 -22.0625 C 28.65625 -24.34375 28.039062 -25.941406 26.8125 -26.859375 C 25.59375 -27.785156 23.867188 -28.25 21.640625 -28.25 C 17.078125 -28.25 14.710938 -27.050781 14.546875 -24.65625 L 4.34375 -24.65625 C 5.570312 -32.445312 11.171875 -36.34375 21.140625 -36.34375 C 27.992188 -36.34375 32.835938 -34.976562 35.671875 -32.25 C 38.515625 -29.519531 39.9375 -25.257812 39.9375 -19.46875 L 39.9375 0 L 29.40625 0 L 28.65625 -3.921875 C 26.320312 -0.972656 21.671875 0.5 14.703125 0.5 Z M 20.71875 -7.609375 C 21.664062 -7.609375 22.972656 -7.882812 24.640625 -8.4375 C 26.316406 -9 27.65625 -9.695312 28.65625 -10.53125 L 28.65625 -15.203125 C 24.976562 -15.203125 21.523438 -14.851562 18.296875 -14.15625 C 15.066406 -13.46875 13.453125 -12.316406 13.453125 -10.703125 C 13.453125 -8.640625 15.875 -7.609375 20.71875 -7.609375 Z M 20.71875 -7.609375 "/></g></g></g><g fill="#3b82f6" fill-opacity="1"><g transform="translate(429.094138, 101.753081)"><g><path d="M 20.5625 0.5 C 10.363281 0.5 4.375 -3.117188 2.59375 -10.359375 L 13.78125 -10.359375 C 14.957031 -8.128906 17.078125 -7.015625 20.140625 -7.015625 C 24.535156 -7.015625 26.734375 -8.101562 26.734375 -10.28125 C 26.734375 -11.226562 25.984375 -11.894531 24.484375 -12.28125 C 22.816406 -12.726562 20.867188 -13.144531 18.640625 -13.53125 C 8.109375 -15.320312 2.84375 -19.082031 2.84375 -24.8125 C 2.84375 -32.5 8.441406 -36.34375 19.640625 -36.34375 C 29.160156 -36.34375 34.8125 -32.722656 36.59375 -25.484375 L 25.3125 -25.484375 C 24.976562 -26.316406 24.644531 -26.925781 24.3125 -27.3125 C 23.976562 -27.707031 23.4375 -28.054688 22.6875 -28.359375 C 21.9375 -28.671875 20.921875 -28.828125 19.640625 -28.828125 C 15.960938 -28.828125 14.125 -27.710938 14.125 -25.484375 C 14.125 -25.097656 14.273438 -24.707031 14.578125 -24.3125 C 14.890625 -23.925781 15.363281 -23.59375 16 -23.3125 C 16.644531 -23.03125 17.285156 -22.78125 17.921875 -22.5625 C 18.566406 -22.34375 19.375 -22.117188 20.34375 -21.890625 C 21.320312 -21.671875 22.160156 -21.488281 22.859375 -21.34375 C 23.554688 -21.207031 24.414062 -21.039062 25.4375 -20.84375 C 26.46875 -20.65625 27.207031 -20.53125 27.65625 -20.46875 C 34.5625 -19.019531 38.015625 -16.015625 38.015625 -11.453125 C 38.015625 -7.660156 36.484375 -4.71875 33.421875 -2.625 C 30.359375 -0.539062 26.070312 0.5 20.5625 0.5 Z M 20.5625 0.5 "/></g></g></g><g fill="#3b82f6" fill-opacity="1"><g transform="translate(469.285955, 101.753081)"><g><path d="M 22.984375 0.5 C 16.179688 0.5 11.082031 -1.222656 7.6875 -4.671875 C 4.289062 -8.128906 2.59375 -12.53125 2.59375 -17.875 C 2.59375 -23.34375 4.25 -27.785156 7.5625 -31.203125 C 10.875 -34.628906 15.929688 -36.34375 22.734375 -36.34375 C 29.472656 -36.34375 34.441406 -34.628906 37.640625 -31.203125 C 40.847656 -27.785156 42.453125 -23.34375 42.453125 -17.875 L 42.453125 -13.78125 L 13.875 -13.78125 C 14.207031 -11.445312 15.109375 -9.832031 16.578125 -8.9375 C 18.054688 -8.050781 20.160156 -7.609375 22.890625 -7.609375 C 26.179688 -7.609375 28.328125 -8.664062 29.328125 -10.78125 L 40.6875 -10.78125 C 40.300781 -7.550781 38.4375 -4.863281 35.09375 -2.71875 C 31.75 -0.570312 27.710938 0.5 22.984375 0.5 Z M 13.953125 -21.71875 L 31.34375 -21.71875 C 30.5625 -24.28125 29.5 -26.007812 28.15625 -26.90625 C 26.820312 -27.800781 24.984375 -28.25 22.640625 -28.25 C 20.304688 -28.25 18.46875 -27.800781 17.125 -26.90625 C 15.789062 -26.007812 14.734375 -24.28125 13.953125 -21.71875 Z M 13.953125 -21.71875 "/></g></g></g></svg>